<svg width="24" height="24" viewBox="0 0 24 24" fill="none" xmlns="http://www.w3.org/2000/svg"><rect width="24" height="24" rx="2" fill="#242424"/><path fill-rule="evenodd" clip-rule="evenodd" d="M3 5a1 1 0 0 1 1-1h16a1 1 0 1 1 0 2H4a1 1 0 0 1-1-1Z" fill="#fff"/><path fill-rule="evenodd" clip-rule="evenodd" d="M12 2a1 1 0 0 1 1 1v2a1 1 0 1 1-2 0V3a1 1 0 0 1 1-1Zm5.4 2.083a1 1 0 0 1 .517 1.317L17 5l.917.4-.008.017-.02.047a42.885 42.885 0 0 1-.377.835 85.22 85.22 0 0 1-1.05 2.204c-.857 1.738-2.007 3.916-3.137 5.563-1.136 1.654-2.8 3.572-4.158 5.055a96.517 96.517 0 0 1-2.408 2.534l-.038.038-.014.014L6 21l.707.707a1 1 0 0 1-1.414-1.414l.011-.011.035-.036a47.114 47.114 0 0 0 .65-.664 94.5 94.5 0 0 0 1.703-1.812c1.346-1.47 2.931-3.302 3.983-4.836 1.046-1.524 2.146-3.596 2.994-5.316a84.733 84.733 0 0 0 1.39-2.96l.018-.044.006-.013" fill="#fff"/><path fill-rule="evenodd" clip-rule="evenodd" d="M7.506 7.13a1 1 0 0 0-.375 1.364L8 8l-.87.494.006.009.012.021.048.083.184.315c.16.273.398.668.703 1.163.61.99 1.494 2.38 2.592 3.98 1.136 1.655 2.8 3.573 4.158 5.056a96.374 96.374 0 0 0 2.408 2.534l.038.038.014.014L18 21l-.707.707a1 1 0 0 0 1.414-1.414l-.011-.011-.035-.036a94.329 94.329 0 0 1-2.353-2.476c-1.346-1.47-2.931-3.303-3.983-4.836a95.808 95.808 0 0 1-2.54-3.898 70.326 70.326 0 0 1-.858-1.43l-.044-.077-.01-.018-.003-.005a1 1 0 0 0-1.364-.375Z" fill="#fff"/></svg>