<svg width="24" height="24" viewBox="0 0 24 24" fill="none" xmlns="http://www.w3.org/2000/svg"><rect width="24" height="24" rx="2" fill="#242424"/><path fill-rule="evenodd" clip-rule="evenodd" d="M8.942 4.664a1 1 0 0 0-1.883 0l-5 14a1 1 0 1 0 1.883.672L5.848 14h4.305l1.905 5.336a1 1 0 0 0 1.884-.672l-5-14ZM9.438 12 8 7.973 6.562 12h2.876ZM21 10a1 1 0 0 1 1 1v8a1 1 0 1 1-2 0v-8a1 1 0 0 1 1-1Z" fill="#fff"/><path fill-rule="evenodd" clip-rule="evenodd" d="M15.872 19.872a5 5 0 1 0-2.384-8.43l.808 2.261a3 3 0 1 1 1.433 4.015l.098.273a3 3 0 0 1 .045 1.88Z" fill="#fff"/></svg>